<?xml version="1.0" standalone="no"?>
<!DOCTYPE svg PUBLIC "-//W3C//DTD SVG 20010904//EN"
 "http://www.w3.org/TR/2001/REC-SVG-20010904/DTD/svg10.dtd">
<svg version="1.0" xmlns="http://www.w3.org/2000/svg"
 width="512.000000pt" height="512.000000pt" viewBox="0 0 512.000000 512.000000"
 preserveAspectRatio="xMidYMid meet">

<g transform="translate(0.000000,512.000000) scale(0.100000,-0.100000)"
fill="#000000" stroke="none">
<path d="M2161 4894 c-68 -18 -109 -43 -156 -95 -68 -75 -79 -115 -83 -285
l-4 -151 -90 -37 -91 -37 -102 100 c-124 123 -166 144 -280 145 -132 0 -141
-6 -448 -312 -311 -310 -322 -326 -321 -457 0 -110 23 -154 146 -281 l99 -101
-37 -91 -37 -90 -151 -4 c-142 -3 -155 -5 -208 -31 -72 -35 -141 -110 -165
-180 -16 -47 -18 -90 -18 -427 0 -337 2 -380 18 -427 24 -70 93 -145 165 -180
53 -26 66 -28 208 -31 l151 -4 37 -91 37 -91 -95 -95 c-123 -125 -150 -176
-150 -286 0 -132 6 -141 312 -448 311 -312 326 -322 457 -321 114 1 156 23
280 145 l102 100 91 -37 90 -37 4 -151 c3 -142 5 -155 31 -208 35 -72 110
-141 180 -165 47 -16 90 -18 427 -18 337 0 380 2 427 18 70 24 145 93 180 165
26 54 28 66 31 209 4 146 5 152 25 159 12 3 53 20 90 36 l69 29 101 -98 c128
-124 172 -147 282 -147 131 -1 147 10 457 321 306 307 312 316 312 448 0 110
-23 154 -146 281 l-99 101 37 91 37 90 151 4 c142 3 155 5 208 31 72 35 141
110 165 180 16 47 18 90 18 427 0 337 -2 380 -18 427 -24 70 -93 145 -165 180
-53 26 -66 28 -208 31 l-151 4 -37 90 -37 91 99 101 c123 127 146 171 146 281
0 132 -6 141 -312 448 -310 311 -326 322 -457 321 -110 0 -154 -23 -282 -147
l-101 -98 -69 29 c-37 16 -78 33 -90 36 -20 7 -21 13 -25 159 -3 143 -5 155
-31 209 -34 69 -109 139 -175 164 -42 16 -88 19 -412 21 -298 2 -375 0 -419
-13z m791 -233 l33 -29 5 -195 c4 -170 7 -198 23 -215 10 -11 58 -34 107 -51
48 -17 127 -49 174 -71 135 -64 135 -64 290 89 141 139 170 155 223 127 34
-18 496 -481 513 -514 24 -47 4 -81 -131 -218 -155 -158 -154 -153 -80 -313
27 -58 58 -136 70 -172 34 -105 31 -103 258 -109 l195 -5 29 -33 29 -32 0
-360 0 -360 -29 -32 -29 -33 -195 -5 c-227 -6 -224 -4 -258 -109 -12 -36 -43
-114 -70 -172 -74 -160 -75 -155 80 -313 135 -137 155 -171 131 -218 -17 -33
-479 -496 -513 -514 -53 -28 -82 -12 -223 127 -156 153 -158 154 -292 89 -45
-22 -123 -54 -172 -71 -49 -17 -97 -40 -107 -51 -16 -17 -19 -45 -23 -215 l-5
-195 -33 -29 -32 -29 -360 0 -360 0 -32 29 -33 29 -5 195 c-4 169 -7 198 -23
215 -10 11 -59 34 -110 52 -51 19 -128 51 -171 72 -131 63 -134 62 -290 -91
-141 -139 -170 -155 -223 -127 -34 18 -496 481 -513 514 -24 47 -4 81 131 218
153 155 153 155 89 290 -22 47 -54 126 -71 174 -17 49 -40 97 -51 107 -17 16
-45 19 -215 23 l-195 5 -29 33 -29 32 0 360 0 360 29 32 29 33 195 5 c227 6
224 4 258 109 12 36 44 115 70 175 72 161 74 153 -80 310 -135 137 -155 171
-131 218 17 33 479 496 513 514 53 28 82 12 223 -127 156 -153 156 -153 293
-88 47 22 125 54 173 71 48 16 95 39 105 50 16 17 19 45 23 215 l5 195 33 29
32 29 360 0 360 0 32 -29z"/>
<path d="M2455 3944 c-335 -34 -615 -160 -847 -383 -286 -274 -431 -611 -431
-1001 0 -228 46 -425 147 -623 69 -137 129 -219 241 -336 116 -121 232 -207
370 -276 393 -195 818 -203 1211 -20 344 159 615 467 732 830 92 283 88 604
-9 883 -59 168 -206 412 -274 453 -45 28 -89 24 -127 -10 -28 -25 -33 -36 -33
-73 0 -37 8 -53 58 -118 68 -89 144 -234 181 -345 111 -333 60 -711 -137
-1012 -23 -35 -44 -63 -48 -63 -4 0 -10 15 -13 34 -9 46 -89 209 -134 271 -91
125 -216 232 -350 299 l-73 37 43 48 c140 156 167 392 66 585 -39 74 -144 181
-215 219 -63 33 -189 67 -253 67 -64 0 -190 -34 -253 -67 -71 -38 -176 -145
-215 -219 -101 -193 -74 -429 66 -585 l43 -48 -73 -37 c-134 -67 -259 -174
-350 -299 -45 -62 -125 -225 -134 -271 -3 -19 -9 -34 -13 -34 -10 0 -85 117
-124 195 -79 159 -117 326 -117 515 0 320 117 603 342 828 224 225 508 342
827 342 198 0 360 -39 542 -131 118 -59 157 -63 200 -20 40 40 41 106 3 144
-65 66 -327 172 -495 201 -90 16 -286 27 -354 20z m240 -783 c239 -113 239
-455 0 -571 -69 -33 -199 -34 -265 -2 -74 36 -117 78 -152 149 -29 59 -33 76
-32 143 1 52 8 89 22 122 72 162 267 235 427 159z m42 -836 c186 -43 365 -177
466 -347 44 -74 87 -200 94 -278 l5 -55 -79 -52 c-106 -71 -248 -136 -368
-169 -93 -26 -113 -28 -295 -28 -181 0 -202 2 -295 27 -112 31 -313 126 -390
185 l-50 38 2 60 c1 36 13 91 30 141 98 272 330 458 623 496 54 8 188 -2 257
-18z"/>
</g>
</svg>
