<?xml version="1.0" standalone="no"?>
<!DOCTYPE svg PUBLIC "-//W3C//DTD SVG 20010904//EN"
 "http://www.w3.org/TR/2001/REC-SVG-20010904/DTD/svg10.dtd">
<svg version="1.0" xmlns="http://www.w3.org/2000/svg"
 width="512.000000pt" height="512.000000pt" viewBox="0 0 512.000000 512.000000"
 preserveAspectRatio="xMidYMid meet">

<g transform="translate(0.000000,512.000000) scale(0.100000,-0.100000)"
fill="#000000" stroke="none">
<path d="M1950 4755 c-36 -8 -108 -35 -160 -61 -79 -39 -110 -62 -181 -133
-73 -72 -94 -101 -132 -181 -60 -125 -77 -211 -77 -395 l0 -145 -59 0 -58 0
-7 49 c-9 67 -58 162 -108 206 -22 21 -66 49 -97 64 l-56 26 -260 0 -260 0
-57 -28 c-112 -55 -181 -150 -201 -276 -10 -62 -13 -67 -46 -84 -80 -39 -151
-128 -175 -218 -16 -59 -17 -180 -14 -1514 l3 -1450 28 -57 c36 -73 101 -139
175 -175 l57 -28 2295 0 2295 0 57 28 c74 36 139 102 175 175 l28 57 3 1450
c3 1626 8 1526 -69 1627 -36 49 -121 118 -144 118 -6 0 -15 31 -21 69 -6 38
-21 90 -34 115 -30 63 -103 134 -170 165 -55 26 -56 26 -315 26 l-260 0 -56
-26 c-31 -15 -75 -43 -97 -64 -50 -44 -99 -139 -108 -206 l-7 -49 -52 0 -53 0
-5 178 c-6 200 -15 244 -78 370 -76 155 -230 288 -400 348 l-84 29 -575 2
c-464 1 -588 -1 -640 -12z m1235 -244 c121 -48 206 -126 261 -236 40 -81 53
-164 54 -327 l0 -108 -64 0 -64 0 -4 168 c-3 160 -4 169 -31 220 -37 70 -97
128 -166 161 l-56 26 -555 0 -555 0 -57 -27 c-69 -32 -135 -96 -168 -163 -23
-46 -25 -64 -28 -217 l-4 -168 -59 0 -59 0 0 118 c0 156 13 233 55 318 60 122
194 227 326 253 24 5 285 9 579 8 l535 -2 60 -24z m-105 -336 c50 -26 60 -59
60 -205 l0 -130 -580 0 -580 0 0 130 c0 145 10 178 58 204 41 23 999 23 1042
1z m-2111 -228 c35 -12 64 -45 76 -84 l6 -23 -290 0 -291 0 0 24 c0 29 50 83
83 89 52 10 383 5 416 -6z m3590 7 c41 -8 91 -58 91 -90 l0 -24 -291 0 -290 0
6 23 c12 39 41 72 76 84 36 13 352 18 408 7z m269 -366 c13 -9 31 -27 40 -40
16 -21 17 -139 20 -1443 2 -1362 1 -1421 -16 -1454 -10 -19 -34 -43 -53 -53
-32 -17 -123 -18 -2259 -18 -2136 0 -2227 1 -2259 18 -19 10 -43 34 -53 53
-17 32 -18 97 -18 1442 0 1266 2 1412 16 1442 17 37 47 61 85 68 13 2 1025 4
2249 3 2055 -1 2227 -2 2248 -18z"/>
<path d="M2395 3223 c-63 -9 -188 -44 -261 -73 -463 -185 -757 -668 -707
-1163 50 -485 382 -870 863 -999 108 -29 353 -36 474 -14 502 95 877 503 929
1013 59 581 -356 1127 -932 1228 -77 14 -291 18 -366 8z m390 -251 c268 -73
471 -241 591 -487 144 -297 110 -660 -86 -925 -174 -234 -441 -370 -730 -370
-246 0 -487 103 -652 278 -83 88 -120 143 -169 246 -110 235 -112 520 -5 751
127 274 366 463 661 521 96 19 298 12 390 -14z"/>
<path d="M2344 2771 c-49 -22 -97 -78 -113 -130 -6 -21 -11 -77 -11 -125 l0
-86 -97 0 c-115 0 -163 -17 -210 -74 -44 -54 -53 -97 -53 -261 0 -164 9 -207
52 -260 50 -60 92 -75 208 -75 l100 0 0 -86 c0 -103 13 -150 53 -200 54 -65
88 -74 287 -74 199 0 233 9 287 74 40 50 53 97 53 200 l0 86 100 0 c116 0 158
15 208 75 43 53 52 97 52 254 0 164 -10 214 -53 266 -47 58 -95 75 -209 75
l-98 0 0 86 c0 103 -13 150 -53 200 -54 65 -88 74 -287 74 -149 0 -181 -3
-216 -19z m326 -311 c0 -111 13 -151 67 -202 47 -45 92 -58 198 -58 l95 0 0
-105 0 -105 -87 0 c-108 0 -153 -12 -199 -52 -60 -52 -74 -93 -74 -208 l0
-100 -110 0 -110 0 0 100 c0 111 -13 151 -67 202 -47 45 -92 58 -198 58 l-95
0 0 105 0 105 95 0 c106 0 151 13 198 58 54 51 67 91 67 202 l0 100 110 0 110
0 0 -100z"/>
</g>
</svg>
