<?xml version="1.0" standalone="no"?>
<!DOCTYPE svg PUBLIC "-//W3C//DTD SVG 20010904//EN"
 "http://www.w3.org/TR/2001/REC-SVG-20010904/DTD/svg10.dtd">
<svg version="1.0" xmlns="http://www.w3.org/2000/svg"
 width="512.000000pt" height="512.000000pt" viewBox="0 0 512.000000 512.000000"
 preserveAspectRatio="xMidYMid meet">

<g transform="translate(0.000000,512.000000) scale(0.100000,-0.100000)"
fill="#000000" stroke="none">
<path d="M0 5031 l0 -89 183 -4 c150 -4 192 -9 238 -26 134 -48 232 -146 286
-282 16 -41 18 -112 23 -825 6 -692 8 -791 24 -875 118 -627 591 -1115 1207
-1249 52 -11 130 -23 174 -26 44 -4 99 -13 122 -21 50 -18 98 -69 112 -121 17
-61 14 -882 -3 -964 -20 -92 -58 -163 -125 -230 -100 -100 -211 -139 -398
-139 l-103 0 0 -90 0 -90 820 0 820 0 0 90 0 90 -102 0 c-189 0 -296 38 -399
140 -66 66 -105 137 -125 229 -17 82 -20 903 -3 964 14 52 62 103 112 121 23
8 78 17 122 21 177 14 360 66 540 156 217 107 413 270 558 464 130 174 240
431 284 660 15 78 18 191 23 870 6 852 3 805 64 910 29 48 98 119 146 150 90
57 143 68 338 73 l182 4 0 89 0 89 -341 0 c-273 0 -354 -3 -409 -16 -165 -37
-307 -189 -340 -363 -6 -34 -10 -352 -10 -856 0 -879 -1 -889 -60 -1067 -60
-180 -143 -311 -285 -454 -55 -56 -129 -120 -164 -144 -134 -90 -294 -156
-444 -185 -163 -31 -242 -13 -294 67 l-28 42 -3 1170 c-2 821 1 1191 8 1238
16 95 60 179 127 246 106 104 212 142 401 142 l102 0 0 90 0 90 -820 0 -820 0
0 -90 0 -90 103 0 c188 0 297 -39 399 -140 68 -69 112 -153 128 -248 7 -47 10
-417 8 -1238 l-3 -1170 -28 -42 c-52 -80 -132 -98 -294 -67 -412 79 -759 382
-892 781 -60 180 -61 189 -61 1063 0 463 -4 821 -10 855 -30 182 -183 342
-360 376 -29 6 -205 10 -391 10 l-339 0 0 -89z"/>
</g>
</svg>
