<?xml version="1.0" standalone="no"?>
<!DOCTYPE svg PUBLIC "-//W3C//DTD SVG 20010904//EN"
 "http://www.w3.org/TR/2001/REC-SVG-20010904/DTD/svg10.dtd">
<svg version="1.0" xmlns="http://www.w3.org/2000/svg"
 width="512.000000pt" height="512.000000pt" viewBox="0 0 512.000000 512.000000"
 preserveAspectRatio="xMidYMid meet">

<g transform="translate(0.000000,512.000000) scale(0.100000,-0.100000)"
fill="#000000" stroke="none">
<path d="M1887 5099 c-25 -13 -44 -34 -57 -62 -34 -71 -622 -2456 -617 -2499
6 -48 38 -91 81 -112 29 -14 82 -16 390 -16 196 0 356 -2 356 -5 0 -3 -187
-505 -415 -1116 -228 -612 -415 -1125 -415 -1141 0 -74 75 -148 149 -148 81 0
26 -70 1311 1701 664 916 1215 1680 1224 1697 35 67 5 157 -64 192 -37 19 -58
20 -370 20 -181 0 -330 2 -330 5 0 3 168 288 374 633 205 345 381 641 390 659
35 69 5 158 -64 193 -38 20 -56 20 -972 20 -913 -1 -934 -1 -971 -21z m1603
-284 c0 -3 -168 -288 -374 -633 -205 -345 -381 -641 -390 -659 -35 -69 -5
-158 64 -193 37 -19 58 -20 355 -20 174 0 315 -4 313 -8 -7 -18 -1551 -2142
-1555 -2139 -2 2 112 311 252 687 140 376 255 696 255 712 0 43 -36 105 -73
125 -28 16 -73 19 -408 23 l-375 5 258 1040 c142 572 260 1046 263 1053 3 9
155 12 710 12 388 0 705 -2 705 -5z"/>
</g>
</svg>
